<?xml version="1.0" standalone="no"?>
<!DOCTYPE svg PUBLIC "-//W3C//DTD SVG 20010904//EN"
 "http://www.w3.org/TR/2001/REC-SVG-20010904/DTD/svg10.dtd">
<svg version="1.0" xmlns="http://www.w3.org/2000/svg"
 width="1280.000000pt" height="1042.000000pt" viewBox="0 0 1280.000000 1042.000000"
 preserveAspectRatio="xMidYMid meet">
<g transform="translate(0.000000,1042.000000) scale(0.100000,-0.100000)"
fill="#000000" stroke="none">
<path d="M118 10395 c-54 -28 -80 -59 -104 -120 -15 -42 -15 -47 0 -86 10 -23
26 -53 36 -66 10 -13 328 -273 707 -577 l688 -552 622 -2180 c342 -1198 631
-2212 642 -2252 l19 -72 -668 -950 c-368 -522 -676 -963 -685 -979 -19 -38
-19 -123 0 -160 20 -40 69 -79 114 -91 26 -7 1525 -9 4713 -8 l4674 3 41 27
c46 31 83 97 83 149 0 41 -29 107 -58 132 -54 49 201 46 -4569 47 -2784 0
-4474 4 -4478 9 -5 9 1071 1547 1118 1598 l20 23 3219 0 c3506 0 3254 -4 3310
56 14 16 179 252 365 524 187 272 478 698 648 945 497 725 1532 2236 1747
2548 207 303 220 330 203 407 -9 40 -60 99 -102 116 -48 21 -112 17 -158 -9
-28 -16 -61 -54 -118 -137 -43 -63 -87 -125 -97 -137 l-20 -23 -5037 0 c-2771
0 -5044 4 -5051 8 -7 5 -48 132 -91 283 -43 151 -85 288 -94 305 -8 16 -33 45
-54 65 -86 81 -1411 1136 -1453 1156 -57 28 -74 28 -132 -2z m2386 -2011 c14
-6 16 -67 16 -589 0 -522 -2 -583 -16 -589 -31 -12 -161 -6 -173 8 -11 13
-331 1125 -331 1151 0 7 6 16 13 18 18 8 472 8 491 1z m1494 -2 c10 -7 12
-132 10 -593 l-3 -584 -620 -3 c-341 -1 -630 0 -642 3 l-23 5 0 584 c0 458 3
585 13 589 21 9 1251 7 1265 -1z m1601 -6 c8 -9 10 -174 9 -597 l-3 -584 -682
1 c-376 1 -690 4 -698 8 -13 5 -15 77 -15 590 0 458 3 585 13 589 6 3 316 6
688 6 560 1 679 -1 688 -13z m1599 2 c16 -16 17 -1169 1 -1185 -14 -14 -1368
-5 -1386 10 -18 14 -19 1157 -1 1175 17 17 1369 17 1386 0z m1721 -2 c8 -9 10
-176 9 -602 l-3 -589 -755 0 -755 0 -3 594 c-2 469 0 596 10 603 7 4 344 8
749 8 610 0 739 -2 748 -14z m1709 6 c10 -7 12 -135 10 -608 l-3 -599 -749 1
c-626 1 -750 4 -757 15 -14 23 -11 1173 3 1187 9 9 189 12 748 12 404 0 741
-4 748 -8z m1251 -1 c8 -5 10 -14 5 -22 -13 -23 -723 -1059 -772 -1127 l-44
-63 -112 3 -111 3 -3 599 c-2 473 0 601 10 608 18 11 1010 10 1027 -1z m-9361
-1579 c2 -153 -1 -203 -9 -200 -15 5 -122 375 -115 395 4 10 21 13 63 11 l58
-3 3 -203z m1480 192 c10 -3 12 -109 10 -506 l-3 -503 -640 0 -640 0 -3 504
c-2 397 0 506 10 513 12 8 1240 0 1266 -8z m1601 -8 c8 -9 10 -151 9 -507 l-3
-494 -695 0 -695 0 -3 495 c-1 272 0 501 3 508 7 19 1368 18 1384 -2z m1606
-501 l0 -500 -694 -3 c-549 -2 -696 0 -703 10 -9 15 -11 958 -2 982 6 15 74
16 703 14 l696 -3 0 -500z m1718 486 c4 -4 6 -227 5 -497 l-3 -489 -757 -3
-758 -2 0 498 c0 274 3 502 7 506 10 9 1495 -4 1506 -13z m1698 -1 c18 -10 19
-23 19 -219 l0 -208 -192 -281 -192 -282 -562 0 c-503 0 -562 2 -568 16 -8 20
-8 948 0 968 6 14 80 16 741 16 487 0 741 -3 754 -10z m299 -11 c0 -14 -61
-99 -72 -99 -4 0 -8 25 -8 55 l0 55 40 0 c22 0 40 -5 40 -11z m-6915 -1749 l0
-565 -466 -3 c-399 -2 -468 0 -478 12 -17 20 -322 1098 -316 1114 3 10 135 12
632 10 l628 -3 0 -565z m1603 11 c1 -401 -1 -558 -9 -567 -9 -12 -129 -14
-684 -14 -371 0 -680 3 -689 6 -14 6 -16 64 -16 563 0 307 3 561 7 564 3 4
317 6 697 5 l691 -3 3 -554z m1600 -5 c2 -441 0 -561 -10 -568 -7 -4 -320 -8
-695 -8 -664 0 -683 1 -693 19 -11 21 -15 1077 -4 1105 6 15 74 16 703 14
l696 -3 3 -559z m1720 3 c2 -461 0 -558 -12 -568 -10 -8 -213 -10 -757 -9
l-744 3 -3 555 c-1 305 0 561 3 568 3 10 160 12 757 10 l753 -3 3 -556z m1170
543 c-6 -22 -745 -1103 -762 -1114 -19 -13 -191 -9 -204 4 -9 9 -12 146 -12
554 0 298 3 549 6 558 5 14 58 16 491 16 465 0 485 -1 481 -18z"/>
<path d="M2727 1930 c-321 -54 -569 -276 -659 -587 -19 -64 -23 -103 -23 -213
0 -161 20 -243 92 -384 38 -74 65 -109 143 -186 77 -78 112 -105 185 -142 212
-109 430 -126 647 -52 205 69 361 210 458 409 62 128 83 219 82 360 -1 331
-198 622 -504 745 -132 52 -293 71 -421 50z"/>
<path d="M8706 1920 c-308 -67 -557 -317 -621 -625 -86 -420 163 -828 580
-947 114 -32 306 -32 419 0 230 66 416 220 516 425 193 400 30 884 -362 1075
-128 62 -204 82 -338 88 -80 3 -127 -1 -194 -16z"/>
</g>
</svg>
